<?xml version="1.0" standalone="no"?>
<!DOCTYPE svg PUBLIC "-//W3C//DTD SVG 20010904//EN"
 "http://www.w3.org/TR/2001/REC-SVG-20010904/DTD/svg10.dtd">
<svg version="1.0" xmlns="http://www.w3.org/2000/svg"
 width="792.000000pt" height="792.000000pt" viewBox="0 0 792.000000 792.000000"
 preserveAspectRatio="xMidYMid meet">
<metadata>
Created by potrace 1.11, written by Peter Selinger 2001-2013
</metadata>
<g transform="translate(0.000000,792.000000) scale(0.100000,-0.100000)"
fill="#000000" stroke="none">
<path d="M3745 7894 c-10 -14 -26 -34 -35 -44 -17 -20 -19 -23 -108 -145 -81
-110 -271 -395 -308 -460 -6 -11 -39 -66 -73 -123 -33 -56 -61 -106 -61 -111
0 -5 -3 -11 -7 -13 -10 -4 -52 -81 -146 -265 -39 -79 -75 -143 -78 -143 -3 0
-37 66 -76 148 -178 373 -247 512 -253 512 -6 0 -91 -137 -164 -263 -66 -115
-203 -370 -287 -537 -89 -177 -209 -427 -209 -435 0 -2 -16 -37 -35 -78 -109
-237 -257 -621 -359 -933 -36 -111 -67 -212 -70 -225 -3 -13 -17 -67 -31 -119
-15 -52 -29 -102 -30 -110 -2 -8 -19 -80 -38 -160 -19 -80 -38 -165 -42 -190
-8 -55 -13 -79 -18 -105 -3 -11 -10 -56 -17 -100 -6 -44 -13 -90 -15 -101 -2
-12 -6 -46 -9 -75 -4 -30 -9 -72 -11 -94 -24 -199 -24 -658 -1 -780 2 -11 7
-47 11 -80 7 -69 39 -232 61 -320 18 -70 92 -291 107 -320 6 -11 12 -22 12
-25 12 -48 175 -362 272 -524 29 -49 53 -90 53 -92 0 -3 168 -252 181 -268 5
-6 53 -67 108 -136 162 -205 287 -336 491 -515 19 -17 78 -63 130 -103 52 -40
100 -76 105 -80 34 -26 156 -102 164 -102 5 0 11 -4 13 -9 5 -14 263 -145 368
-186 52 -20 104 -41 115 -46 49 -20 190 -59 267 -74 119 -22 292 -22 408 0 17
3 96 36 197 81 100 44 114 50 263 114 80 34 163 70 185 80 71 32 120 53 125
55 3 1 22 9 44 18 21 9 40 17 42 17 1 0 31 13 66 29 35 16 149 66 253 111 105
45 204 87 220 95 17 7 179 77 360 155 182 78 354 153 383 166 29 13 80 36 115
50 61 25 106 45 190 84 24 11 49 20 55 20 7 0 12 3 12 8 0 7 -58 232 -103 402
-14 52 -40 149 -57 215 -17 66 -43 163 -57 215 -58 221 -65 246 -69 265 -4 12
-41 40 -98 74 -51 29 -99 56 -105 60 -9 6 -7 26 8 82 25 95 60 270 67 334 3
28 7 61 9 75 24 143 25 618 1 810 -3 19 -7 60 -11 90 -10 103 -44 316 -70 446
-28 136 -100 442 -114 484 -5 14 -16 52 -26 85 -42 151 -110 364 -175 545
-239 664 -523 1268 -916 1947 -11 18 -22 32 -26 30 -8 -2 -181 -221 -267 -337
-30 -41 -60 -80 -66 -87 -5 -6 -21 -28 -35 -47 -14 -20 -28 -36 -31 -36 -4 0
-40 60 -80 133 -41 72 -78 140 -84 149 -89 153 -278 452 -295 468 -3 3 -29 41
-59 85 -30 44 -57 82 -60 85 -3 3 -39 49 -79 103 -41 53 -75 97 -76 97 0 0
-10 -12 -21 -26z"/>
</g>
</svg>
